<svg width="32" height="32" viewBox="0 0 32 32" fill="none" xmlns="http://www.w3.org/2000/svg">
<rect width="32" height="32" rx="6" fill="#F7F7FF"/>
<g clip-path="url(#clip0_171_7773)">
<path d="M10 14V22.5C10 23.3284 10.6716 24 11.5 24H20.5C21.3284 24 22 23.3284 22 22.5V14H10Z" fill="#5B5CE2"/>
<path fill-rule="evenodd" clip-rule="evenodd" d="M19 10V9C19 8.44772 18.5523 8 18 8H14C13.4477 8 13 8.44772 13 9V10H8.5C8.22386 10 8 10.2239 8 10.5V11.5C8 11.7761 8.22386 12 8.5 12H23.5C23.7761 12 24 11.7761 24 11.5V10.5C24 10.2239 23.7761 10 23.5 10H19Z" fill="#9999EE"/>
</g>
<defs>
<clipPath id="clip0_171_7773">
<rect width="16" height="16" fill="white" transform="translate(8 8)"/>
</clipPath>
</defs>
</svg>
