<svg width="32" height="32" viewBox="0 0 32 32" fill="none" xmlns="http://www.w3.org/2000/svg">
<path fill-rule="evenodd" clip-rule="evenodd" d="M16 31.3854C24.8366 31.3854 32 24.293 32 15.544C32 6.79504 24.8366 -0.297398 16 -0.297398C7.16344 -0.297398 0 6.79504 0 15.544C0 24.293 7.16344 31.3854 16 31.3854ZM18.4696 11.9422C19.8334 10.5917 19.8334 8.40236 18.4696 7.05195C17.1057 5.70157 14.8944 5.70157 13.5305 7.05195C12.1666 8.40236 12.1666 10.5917 13.5305 11.9422L16 14.3872L18.4696 11.9422ZM19.638 17.9891C21.0019 19.3395 23.2132 19.3395 24.5771 17.9891C25.941 16.6387 25.941 14.4494 24.5771 13.099C23.2132 11.7486 21.0019 11.7486 19.638 13.099L17.1685 15.5441L19.638 17.9891ZM18.4696 24.0361C19.8334 22.6857 19.8334 20.4963 18.4696 19.1459L16 16.7009L13.5305 19.1459C12.1666 20.4963 12.1666 22.6857 13.5305 24.0361C14.8944 25.3864 17.1057 25.3864 18.4696 24.0361ZM7.42291 17.9891C6.05904 16.6387 6.05904 14.4494 7.42291 13.099C8.78686 11.7486 10.9981 11.7486 12.3621 13.099L14.8316 15.5441L12.3621 17.9891C10.9981 19.3395 8.78686 19.3395 7.42291 17.9891Z" fill="white"/>
</svg>
